<?xml version="1.0" ?><!-- Uploaded to: SVG Repo, www.svgrepo.com, Generator: SVG Repo Mixer Tools -->
<svg width="800px" height="800px" viewBox="0 0 24 24" fill="none" xmlns="http://www.w3.org/2000/svg"><path clip-rule="evenodd" d="M10.4269 2.42136C11.4003 1.85938 12.5996 1.85938 13.573 2.42136L19.5087 5.84836C20.4821 6.41034 21.0817 7.44892 21.0817 8.57288V15.4269C21.0817 16.5508 20.4821 17.5894 19.5087 18.1514L13.573 21.5784C12.5996 22.1404 11.4003 22.1404 10.4269 21.5784L4.49122 18.1514C3.51784 17.5894 2.91821 16.5508 2.91821 15.4269V8.57288C2.91821 7.44892 3.51784 6.41034 4.49122 5.84836L10.4269 2.42136ZM9.34833 9.34832C9.64123 9.05543 10.1161 9.05543 10.409 9.34832L11.9999 10.9393L13.5909 9.34833C13.8838 9.05544 14.3587 9.05544 14.6516 9.34833C14.9444 9.64123 14.9444 10.1161 14.6516 10.409L13.0606 11.9999L14.6516 13.591C14.9445 13.8839 14.9445 14.3587 14.6516 14.6516C14.3587 14.9445 13.8839 14.9445 13.591 14.6516L11.9999 13.0606L10.4089 14.6516C10.116 14.9445 9.64115 14.9445 9.34825 14.6516C9.05536 14.3587 9.05536 13.8839 9.34825 13.591L10.9393 11.9999L9.34833 10.409C9.05544 10.1161 9.05544 9.64122 9.34833 9.34832Z" fill="#000000" fill-rule="evenodd"/></svg>